<svg xmlns="http://www.w3.org/2000/svg" viewBox="0 0 89.91 99.79">
  <title>cerrardo-black</title>
  <g id="Capa_2" data-name="Capa 2">
    <g id="Capa_1-2" data-name="Capa 1">
      <g id="Capa_2-2" data-name="Capa 2">
        <g id="Capa_1-2-2" data-name="Capa 1-2">
          <path d="M54.47,49.9,88,12.74A8.09,8.09,0,0,0,88,2.17a6.3,6.3,0,0,0-8.88-.63,5.35,5.35,0,0,0-.63.63L45,39.34,11.48,2.17A6.3,6.3,0,0,0,2.6,1.54,6.34,6.34,0,0,0,2,2.17H2A8.11,8.11,0,0,0,2,12.74L35.44,49.9,2,87.05A8.11,8.11,0,0,0,2,97.62H2a6.29,6.29,0,0,0,8.88.63,5.43,5.43,0,0,0,.64-.63L45,60.45,78.44,97.62a6.29,6.29,0,0,0,9.51,0,8.09,8.09,0,0,0,0-10.57Z"/>
        </g>
      </g>
    </g>
  </g>
</svg>